OpenSim_Sub03_CSStiffKnee_RCS.mot
version=1
nRows=58
nColumns=11
inDegrees=no
endheader
time	Top_Thigh	Med_Thigh	Bot_Thigh	Top_Shank	2nd_Top_Shank	2nd_Bot_Shank	Bot_Shank	BNOx	BNOy	BNOZ
27.27000000	9936.80369486	9808.10243221	10560.37208457	10819.26453453	12073.10187687	13156.36518550	14325.85089042	91.26693138	-36.93234144	103.55074259
27.28000000	9943.45761134	9813.63126123	10558.51558127	10817.02896102	12067.66014538	13103.66513961	14292.77329766	84.62184845	-42.43637124	104.42279132
27.29000000	9951.81212963	9821.88705763	10555.22510205	10815.87228001	12064.59941823	13030.71877400	14242.49290112	75.72056051	-49.91030017	105.39351191
27.30000000	9960.82615798	9831.88721058	10550.49490640	10815.81903074	12063.85416597	12944.34144945	14179.97390080	65.15063584	-58.81641765	106.91489036
27.31000000	9966.76891587	9839.47973082	10544.41401596	10816.10100591	12064.16709014	12870.86124157	14125.48558504	55.30361231	-66.96746962	110.41633588
27.32000000	9967.67856870	9842.44347095	10537.26854032	10816.22496360	12064.66426740	12825.14261737	14090.66497576	47.57814379	-73.08715829	116.33759835
27.33000000	9964.37364355	9841.63329693	10529.58479314	10816.19592538	12065.18173822	12803.66470884	14073.19676882	41.76040025	-77.37763308	123.65593512
27.34000000	9957.85848378	9838.10964987	10521.90514133	10816.05221262	12065.60299116	12801.67792511	14069.83320266	37.52878664	-80.13985051	131.25086272
27.35000000	9949.13743274	9832.93297088	10514.77195180	10815.83214668	12065.81151478	12814.43267529	14077.32651572	34.56170789	-81.67476711	138.00189769
27.36000000	9939.21483377	9827.16370107	10508.72759144	10815.57404893	12065.69079761	12837.17936849	14092.42894644	32.53756896	-82.28333939	142.78855655
27.37000000	9929.09503022	9821.86228157	10504.31442717	10815.31624073	12065.12432822	12865.16841384	14111.89273326	31.13477480	-82.26652390	144.49035582
27.38000000	9919.78236543	9818.08915347	10502.07482590	10815.09704344	12063.99559516	12893.65022044	14132.47011462	30.03173035	-81.92527714	141.98681205
27.39000000	9912.26707134	9816.88654522	10502.53865300	10814.95419796	12062.19095736	12917.93329466	14150.95011198	28.91070739	-81.55723400	134.17602207
27.40000000	9906.99079850	9818.58866712	10505.74977741	10814.90287882	12059.70835991	12935.58467289	14165.55168707	27.60430078	-81.33090011	120.67839219
27.41000000	9903.68257083	9822.60998887	10511.12074142	10814.92894612	12056.69070221	12947.10530199	14176.35134459	26.14038036	-81.24703763	102.05263432
27.42000000	9902.02378624	9828.30351239	10518.02189473	10815.01630082	12053.29057124	12953.19220696	14183.54973196	24.55986651	-81.29519817	78.92016890
27.43000000	9901.69584262	9835.02223959	10525.82358703	10815.14884388	12049.66055395	12954.54241281	14187.34749659	22.90367965	-81.46493332	51.90241635
27.44000000	9902.38013787	9842.11917236	10533.89616799	10815.31047626	12045.95323732	12951.85294457	14187.94528591	21.21274016	-81.74579467	21.62079711
27.45000000	9903.75806988	9848.94731262	10541.60998732	10815.48509891	12042.32120831	12945.82082725	14185.54374734	19.52796844	-82.12733383	-11.30326838
27.46000000	9905.51103655	9854.85966227	10548.33539469	10815.65661281	12038.91705388	12937.14308585	14180.34352829	17.89028489	-82.59910238	-46.24835968
27.47000000	9907.32043578	9859.20922321	10553.44273980	10815.80891889	12035.89336100	12926.51674539	14172.54527618	16.34060990	-83.15065193	-82.59305636
27.48000000	9908.86766547	9861.34899736	10556.30237234	10815.92591813	12033.40271662	12914.63883088	14162.34963845	14.91986387	-83.77153407	-119.71593799
27.49000000	9909.83412351	9860.63198661	10556.28464198	10815.99151148	12031.59770772	12902.20636734	14149.95726249	13.66896720	-84.45130039	-156.99558413
27.50000000	9909.91098285	9856.44672943	10552.79378909	10815.99027058	12030.62568252	12889.92383931	14135.59391749	12.62792557	-85.17881168	-193.79087588
27.51000000	9909.01424274	9848.99910482	10546.01353919	10815.92219260	12030.51349824	12878.66730047	14120.06317278	11.81570626	-85.92703976	-229.00762994
27.52000000	9907.28472870	9839.31233237	10536.90710300	10815.80270027	12031.16752112	12869.48437366	14104.74639790	11.23023815	-86.65306753	-261.09859855
27.53000000	9904.87304134	9828.44516820	10526.47158190	10815.64788698	12032.48887864	12863.43014123	14091.05008413	10.86853540	-87.31328706	-288.49683551
27.54000000	9901.92978123	9817.45636844	10515.70407725	10815.47384612	12034.37869828	12861.55968554	14080.38072273	10.72761219	-87.86409044	-309.63539461
27.55000000	9898.60554897	9807.40468922	10505.60169045	10815.29667110	12036.73810754	12864.92808895	14074.14480500	10.80448267	-88.26186973	-322.94732966
27.56000000	9895.05094514	9799.34888667	10497.16152285	10815.13245531	12039.46823391	12874.59043383	14073.74882219	11.09616101	-88.46301701	-326.86569446
27.57000000	9891.41657033	9794.34771691	10491.38067585	10814.99729214	12042.47020487	12891.60180252	14080.59926559	11.59966137	-88.42392435	-319.82354279
27.58000000	9887.85302512	9793.45993607	10489.25625082	10814.90727499	12045.64514791	12917.01727740	14096.10262648	12.31199793	-88.10098383	-300.25392846
27.59000000	9884.51091012	9797.74430028	10491.78534912	10814.87849726	12048.89419051	12951.89194081	14121.66539612	13.23018484	-87.45058752	-266.58990527
27.60000000	9881.54082591	9808.25956566	10499.96507215	10814.92705235	12052.11846018	12997.28087512	14158.69406580	14.35123628	-86.42912750	-217.26452701
27.61000000	9879.09237940	9826.01265629	10514.74615753	10815.06840909	12055.21910029	13054.15000708	14208.50004710	15.67095158	-84.99574141	-150.83450403
27.62000000	9877.27654857	9849.99552513	10535.27695259	10815.29375679	12058.09787250	13119.99933906	14268.69852838	17.13790407	-83.21630120	-70.66369513
27.63000000	9876.15413105	9876.58260644	10558.36443591	10815.56274479	12060.65734161	13187.82651511	14332.10317332	18.63931879	-81.29533047	13.63938507
27.64000000	9875.78257082	9901.97340126	10580.65910842	10815.83291456	12062.80012606	13250.32827908	14391.20675164	20.05832076	-79.44661912	92.04888104
27.65000000	9876.21893957	9922.38984796	10598.83079769	10816.06203224	12064.42964818	13300.24459300	14438.54443753	21.27873649	-77.88273163	154.59883675
27.66000000	9877.49150469	9935.78986684	10611.04463892	10816.22524773	12065.51152451	13333.65922573	14469.93225616	22.23866723	-76.72142115	195.95773819
27.67000000	9879.57970824	9943.07398811	10618.00041755	10816.32717765	12066.11679513	13352.32393078	14486.74750287	22.96821360	-75.91972902	218.64977235
27.68000000	9882.45826282	9945.42777876	10620.64343866	10816.37529287	12066.32671197	13358.53949264	14490.90616703	23.50638780	-75.41912918	225.96007100
27.69000000	9886.10188101	9944.03680575	10619.91900731	10816.37706429	12066.22252700	13354.60669582	14484.32423803	23.89220201	-75.16109558	221.17376592
27.70000000	9890.48527540	9940.08663607	10616.77242858	10816.33996282	12065.88549216	13342.82632480	14468.91770527	24.16466841	-75.08710218	207.57598885
27.71000000	9895.58315859	9934.76283670	10612.14900754	10816.27145933	12065.39685940	13325.49916408	14446.60255811	24.36279920	-75.13862291	188.45187157
27.72000000	9901.37024317	9929.25097461	10606.99404925	10816.17902473	12064.83788068	13304.92599817	14419.29478595	24.52560655	-75.25713172	167.08654585
27.73000000	9907.82124172	9924.73661678	10602.25285880	10816.07012991	12064.28980795	13283.40761155	14388.91037818	24.69210266	-75.38410256	146.76514344
27.74000000	9914.90892156	9922.38799182	10598.85764748	10815.95229964	12063.83290448	13263.21798502	14357.35013887	24.90071475	-75.46179482	130.72778101
27.75000000	9922.53042730	9922.69929856	10597.23160631	10815.83515355	12063.50899840	13245.58910490	14325.92454358	25.16712946	-75.46300182	120.46461325
27.76000000	9930.48466697	9925.28914737	10597.13669090	10815.73103247	12063.30998930	13230.39936987	14295.17721022	25.47749263	-75.40018160	115.19253232
27.77000000	9938.56398327	9929.71763157	10598.29066542	10815.65245914	12063.22443992	13217.43671607	14265.60050631	25.81597586	-75.28844303	113.97650441
27.78000000	9946.56071893	9935.54484448	10600.41129403	10815.61195627	12063.24091302	13206.48907965	14237.68679937	26.16675071	-75.14289498	115.88149573
27.79000000	9954.26721666	9942.33087941	10603.21634090	10815.62204659	12063.34797136	13197.34439675	14211.92845692	26.51398878	-74.97864633	119.97247249
27.80000000	9961.47581918	9949.63582969	10606.42357016	10815.69525282	12063.53417770	13189.79060350	14188.81784649	26.84186164	-74.81080596	125.31440089
27.81000000	9967.97886920	9957.01978862	10609.75074600	10815.84409769	12063.78809478	13183.61563606	14168.84733559	27.13454087	-74.65448274	130.97224712
27.82000000	9973.57003929	9964.04461270	10612.91677726	10816.08091770	12064.09824518	13178.60665791	14152.50525897	27.37633955	-74.52467170	136.01569588
27.83000000	9978.14589346	9970.40857558	10615.72913838	10816.40364210	12064.45004068	13174.49105292	14139.96793297	27.56251836	-74.42755924	139.87950249
27.84000000	9981.77740381	9976.04118746	10618.14542860	10816.78577884	12064.82362020	13170.89487431	14130.88278116	27.70689496	-74.35440049	142.61724238
